<?xml version="1.0" encoding="UTF-8"?>
<svg id="_レイヤー_1" data-name="レイヤー 1" xmlns="http://www.w3.org/2000/svg" viewBox="0 0 604.56 473.01">
  <path d="M477.22,286.6l43.11,40.63,4.41,3.93,8.66,8.64c10.16,10.11,16.19,23.08,20.34,36.86l4.94,23.96.66,6.86-.05,18.16c0,6.31-2.38,12.31-5.9,17.45l-2.91,3.17-6.16,9.02,34.58.08c2.86,0,5.34-2.61,5.62-5.29l.84-7.55.08-30.32.61-3.5.08-23.48.63-3.5v-37.29l-1.9-7.09c-4.96-10.79-16.87-18.19-23.2-32.14-2.08-4.58-4.1-9.57-4.08-14.59v-11.15l1.34-7.57,6.48-26.27c1.17-4.71,5.27-7.35,9.9-6.69,3.75.56,8.23,4.69,7.12,9.3l-6.46,26.62-1.09,6.69c-1.29,7.98,2.05,17.33,7.45,23.76l11.65,13.88c5.72,6.81,9.4,14.94,10.01,23.86l.58,8.33-.68,9.68-.08,30.35-.61,3.67-.08,23.13-.58,3.65-.15,27.28c-1.44,13.35-9.9,23.94-23.28,23.89l-44.1-.13c-5.37,0-10.06-4.61-10.89-9.57-1.34-7.93,4.38-16.62,9.45-23.48l6.48-8.76c1.98-2.66,1.85-7.3,1.87-10.54l.08-7.75-.53-9.32c-.53-8.99-2.56-17.4-5.9-26.29l-7.68,14.87-32.57,65.5c-4.26,8.54-12.92,15.22-22.47,15.25l-47.67.2c-4.64,0-9.12-1.82-11.25-6.03-2.13-4.2-1.19-9.07,1.01-13.25,4.05-7.68,9.04-14.49,15.63-20.26,2.76-2.43,4.61-4.89,6.28-8.21,7.52-15.05,14.49-29.94,19.88-45.87,3.24-9.6,4.15-19.5-1.09-28.07-4.23-6.89-8.51-13.43-11.68-20.92-3.17-7.5-5.34-15.07-6.59-23.08l-2.15-13.91-70.65.15c-7.85,0-14.11,5.85-17.12,12.36-2.25,4.86-2.53,9.73-3.14,14.87l-2.79,23.48c-4.03,33.77-9.63,66.95-17.43,100.08l-2.71,9.85c-1.09,3.95-2.79,7.78-5.4,11.15-3.09,3.95-8.36,7.47-13.7,7.47h-43.31c-3.65,0-7.07-2.91-8.54-5.09-2.31-3.44-2.61-7.42-1.14-11.2,2.13-5.45,4.94-10.39,8.38-15.07l6.23-8.44c1.04-1.42,2.56-3.29,3.04-5.07,2.74-10.21,5.07-20.09,5.9-30.62l.68-8.66-.1-17.93c-.1-14.41-4.99-27.2-12.69-39.19l-15.68-24.37c-10.01-15.53-26.77-10.23-41.39-11.73l-8.49-.86-1.06.76,5.02,9.4,5.6,10.28,10.46,18.67c4.76,8.49,8.41,17.17,8.33,26.95l-.05,6.81-1.62,11.02c-3.95,15.7-9.63,30.52-16.54,45.11l-6.43,13.6c-.81,1.75-2.33,3.9-3.6,5.29l-5.32,5.75-5.45,6.28,1.01.89,28.5.18c4.2.03,7.12,5.19,7.04,8.71-.08,3.82-3.29,8.56-7.85,8.56h-41.74c-2.99-.03-6.38-2.66-7.62-4.56-1.75-2.71-2.46-6.33-1.27-9.6,2.28-6.38,5.62-12.34,10.08-17.45l10.59-12.18,3.93-7.85c6.76-13.58,12.21-27.31,16.79-41.77,1.93-6.1,2.51-12.01,2.31-18.44-.23-7.14-3.06-13.43-6.48-19.53l-6-10.64-13.05-24.09c-5.83-10.77-13.07-18.8-24.65-23.3-11.58-4.51-22.21-10.66-32.25-17.96-11.04-8.03-20.29-17.66-27.53-29.1l-7.42-13.43c-6.51-13.86-10.41-28.47-12.06-43.75l-.81-7.42-.61-7.02-.43-10.89-.46-8.38c-.35-6.31-.1-12.74-2.89-18.57-4.46-9.3-14.08-15.12-24.47-15.43-9.12-.25-18.59,2.43-28.85,1.19C6.81,111.24-.99,101.64.1,90.14c.43-4.61,2-8.84,3.17-13.3l1.85-7.12c4.64-17.86,15.86-22.67,32.95-26.39l12.56-2.74c2.76-.61,6.05-2.33,8.13-4.05l5.04-4.2c7.45-6.18,16.84-10.08,26.82-10.18l31.99-.28C130.91,7.39,143.57-.41,160.16.02c5.7.15,11.42,2.79,13.3,8.54,2.1,6.54,2.38,13.65,1.72,20.42-1.37,7.98-3.47,15.05-8.61,21.43.1,1.09.41,2.63.86,3.57,3.34,7.19,5.02,14.59,5.72,22.57l.08,16.31-.48,6.31-3.9,30.55-.71,6.79.1,13.43c.05,7.04,2.71,13.7,6.84,19.25,9.32,12.54,25.38,12.99,38.81,5.78,24.67-13.27,40.05-46.66,47.57-73.13l9.5-33.33c3.82-13.4,13.88-29.05,26.39-35.21l4.1-2c11.98-5.88,26.42-5.83,38.43-.03l3.77,1.82c6.28,3.04,11.83,7.52,15.53,13.4l6.13,9.73c3.65,7.55,5.88,15.25,8.59,23.15l7.57,22.11c1.32,3.88,3.75,7.14,6.54,10.18,4.38,4.76,12.21,3.98,16.36-.99,2.2-2.66,4.41-5.67,5.62-8.92l5.02-13.6,8.44-25.36c3.65-10.99,13.53-24.19,23.71-29.36l4.23-2.15c11.17-5.65,27.61-5.4,39.03.56,3.6,1.87,7.19,3.75,10.21,6.38,14.13,12.39,18.36,28.9,21.63,46.81l4.48,24.52c1.52,8.33,5.8,15.5,11.15,21.96l6.86,6.94,4.86,4.15,10.77,9.27c17.12,14.72,24.67,32.19,26.95,54.51v12.16c-.03,3.39-4.26,5.98-7.5,6.33-3.72.43-8.79-2.41-9.09-6.26l-.84-11.09c-1.06-14.26-6.51-27.56-16.59-37.56l-5.19-5.14-5.93-5.17-6.31-5.45c-5.72-4.94-11.12-9.98-15.5-16.19-15.45-21.89-12.34-43.42-19.58-66.95-4.26-13.83-13.86-25-28.55-25.68-7.04-.33-13.63,1.32-19.35,5.57s-9.93,9.98-12.29,16.62l-5.62,15.76-5.12,15.58c-2.25,6.84-5.09,13.2-9.09,19.25-7.88,11.96-22.04,17.88-35.44,12.54-15.93-6.36-21.2-23.71-26.27-39.24l-7.12-21.81c-2.03-6.21-5.55-11.68-10.21-16.03-13.63-12.82-35.61-10.71-46.46,5.29-4.03,5.93-6.76,12.44-8.74,19.43l-7.75,27.46c-5.8,20.54-15.63,44.51-28.93,60.94l-3.09,3.82c-11.91,14.74-30.04,26.75-49.27,27.36-27.46.86-44.63-19.25-46.94-45.8l-.1-18.42.51-5.57,3.82-27.94.73-6.18-.05-16.57c-.03-7.83-3.27-15.12-7.24-21.68-2.69-4.43-1.65-9.42,2-12.89,6.36-6,10.16-17.91,6.89-25.56-6.26.58-10.97,2.99-15.12,7.09-5.9,5.8-6.79,15.15-15.7,15.2l-35.82.15c-7.57.03-13.63,4.64-19.23,8.97l-6.66,5.14c-4,3.09-9.47,3.77-14.41,4.89l-15.27,3.47c-4.05.91-8.18,3.14-10.89,6.31-2.05,2.38-2.18,5.95-2.99,8.81l-3.72,12.89c-.91,3.19,3.34,5.67,6.18,5.4l18.26-1.85c9.5-.96,18.95,1.39,27.18,6.08,12.72,7.24,21.1,19.25,22.49,33.97l.66,6.92.43,8.79.43,7.6.56,8.33.63,6.36c3.06,30.17,13.63,56.89,37.34,76.19,6.38,5.19,12.56,9.5,19.83,13.43,15.76,8.49,32.47,14.08,50.46,15.63l23.81.53c14.44.33,27.05,8.16,35.11,20.06,7.35,10.87,13.2,22.11,19.56,33.64,5.34,9.7,8.36,19.99,9.65,31.11l.71,6.13v24.82l-.48,4.86c-1.24,11.75-3.47,22.87-6.61,34.25-.99,3.57-2.79,7.37-4.99,10.26l-7.75,10.16-.94,1.67c-.18.3,1.24.71,1.52.71h28.7c2.79-.91,4.36-3.04,5.12-6.05,7.22-28.67,12.74-57.32,16.52-86.71l3.7-28.75.68-6.18.68-6.23.63-5.65c.81-7.45,2.23-14.56,6.16-21.1,6.13-10.23,16.52-18.54,28.85-18.64l44.18-.33,12.46-.41,34.55.28c8.61.08,17.07,4.79,23.68,10.99l-.05.1ZM480.9,448.16l9.32-19.33,27.53-54.66c2.15-4.28,3.09-9.09,3.44-13.91.15-2.1-1.06-5.67-1.9-7.6-2.18-4.99-5.95-8.28-9.83-11.73l-5.5-4.86-3.65-3.24-7.57-6.94-20.44-19.63c-5.83-5.6-9.73-10.82-19.2-12.49l.89,6.31c1.57,11.32,4.66,22.24,10.54,32.02l3.9,6.51c5.4,8.99,9.78,18.59,8.44,29.33l-.68,5.42-4.51,16.21c-5.6,15.58-12.26,30.22-19.83,44.94-1.39,2.74-3.34,5.7-5.32,7.85l-11.91,12.87,36.02.1c4.41,0,8.28-3.09,10.26-7.17h0Z" fill="#040000"/>
  <path d="M107.81,67.19l-6.03,3.93c-10.99,7.14-29.33-3.14-25.58-6.76,4.76-4.61,11.3-5.75,17.73-5.5s15.63,4,13.91,8.33h-.03Z" fill="#040000"/>
</svg>