<?xml version="1.0" encoding="UTF-8"?>
<svg id="_レイヤー_1" data-name="レイヤー 1" xmlns="http://www.w3.org/2000/svg" viewBox="0 0 2295.43 473.01">
  <g>
    <path d="M477.22,286.6l43.11,40.63,4.41,3.93,8.66,8.64c10.16,10.11,16.19,23.08,20.34,36.86l4.94,23.96.66,6.86-.05,18.16c0,6.31-2.38,12.31-5.9,17.45l-2.91,3.17-6.16,9.02,34.58.08c2.86,0,5.34-2.61,5.62-5.29l.84-7.55.08-30.32.61-3.5.08-23.48.63-3.5v-37.29l-1.9-7.09c-4.96-10.79-16.87-18.19-23.2-32.14-2.08-4.58-4.1-9.57-4.08-14.59v-11.15l1.34-7.57,6.48-26.27c1.17-4.71,5.27-7.35,9.9-6.69,3.75.56,8.23,4.69,7.12,9.3l-6.46,26.62-1.09,6.69c-1.29,7.98,2.05,17.33,7.45,23.76l11.65,13.88c5.72,6.81,9.4,14.94,10.01,23.86l.58,8.33-.68,9.68-.08,30.35-.61,3.67-.08,23.13-.58,3.65-.15,27.28c-1.44,13.35-9.9,23.94-23.28,23.89l-44.1-.13c-5.37,0-10.06-4.61-10.89-9.57-1.34-7.93,4.38-16.62,9.45-23.48l6.48-8.76c1.98-2.66,1.85-7.3,1.87-10.54l.08-7.75-.53-9.32c-.53-8.99-2.56-17.4-5.9-26.29l-7.68,14.87-32.57,65.5c-4.26,8.54-12.92,15.22-22.47,15.25l-47.67.2c-4.64,0-9.12-1.82-11.25-6.03-2.13-4.2-1.19-9.07,1.01-13.25,4.05-7.68,9.04-14.49,15.63-20.26,2.76-2.43,4.61-4.89,6.28-8.21,7.52-15.05,14.49-29.94,19.88-45.87,3.24-9.6,4.15-19.5-1.09-28.07-4.23-6.89-8.51-13.43-11.68-20.92-3.17-7.5-5.34-15.07-6.59-23.08l-2.15-13.91-70.65.15c-7.85,0-14.11,5.85-17.12,12.36-2.25,4.86-2.53,9.73-3.14,14.87l-2.79,23.48c-4.03,33.77-9.63,66.95-17.43,100.08l-2.71,9.85c-1.09,3.95-2.79,7.78-5.4,11.15-3.09,3.95-8.36,7.47-13.7,7.47h-43.31c-3.65,0-7.07-2.91-8.54-5.09-2.31-3.44-2.61-7.42-1.14-11.2,2.13-5.45,4.94-10.39,8.38-15.07l6.23-8.44c1.04-1.42,2.56-3.29,3.04-5.07,2.74-10.21,5.07-20.09,5.9-30.62l.68-8.66-.1-17.93c-.1-14.41-4.99-27.2-12.69-39.19l-15.68-24.37c-10.01-15.53-26.77-10.23-41.39-11.73l-8.49-.86-1.06.76,5.02,9.4,5.6,10.28,10.46,18.67c4.76,8.49,8.41,17.17,8.33,26.95l-.05,6.81-1.62,11.02c-3.95,15.7-9.63,30.52-16.54,45.11l-6.43,13.6c-.81,1.75-2.33,3.9-3.6,5.29l-5.32,5.75-5.45,6.28,1.01.89,28.5.18c4.2.03,7.12,5.19,7.04,8.71-.08,3.82-3.29,8.56-7.85,8.56h-41.74c-2.99-.03-6.38-2.66-7.62-4.56-1.75-2.71-2.46-6.33-1.27-9.6,2.28-6.38,5.62-12.34,10.08-17.45l10.59-12.18,3.93-7.85c6.76-13.58,12.21-27.31,16.79-41.77,1.93-6.1,2.51-12.01,2.31-18.44-.23-7.14-3.06-13.43-6.48-19.53l-6-10.64-13.05-24.09c-5.83-10.77-13.07-18.8-24.65-23.3-11.58-4.51-22.21-10.66-32.25-17.96-11.04-8.03-20.29-17.66-27.53-29.1l-7.42-13.43c-6.51-13.86-10.41-28.47-12.06-43.75l-.81-7.42-.61-7.02-.43-10.89-.46-8.38c-.35-6.31-.1-12.74-2.89-18.57-4.46-9.3-14.08-15.12-24.47-15.43-9.12-.25-18.59,2.43-28.85,1.19C6.81,111.24-.99,101.64.1,90.14c.43-4.61,2-8.84,3.17-13.3l1.85-7.12c4.64-17.86,15.86-22.67,32.95-26.39l12.56-2.74c2.76-.61,6.05-2.33,8.13-4.05l5.04-4.2c7.45-6.18,16.84-10.08,26.82-10.18l31.99-.28C130.91,7.39,143.57-.41,160.16.02c5.7.15,11.42,2.79,13.3,8.54,2.1,6.54,2.38,13.65,1.72,20.42-1.37,7.98-3.47,15.05-8.61,21.43.1,1.09.41,2.63.86,3.57,3.34,7.19,5.02,14.59,5.72,22.57l.08,16.31-.48,6.31-3.9,30.55-.71,6.79.1,13.43c.05,7.04,2.71,13.7,6.84,19.25,9.32,12.54,25.38,12.99,38.81,5.78,24.67-13.27,40.05-46.66,47.57-73.13l9.5-33.33c3.82-13.4,13.88-29.05,26.39-35.21l4.1-2c11.98-5.88,26.42-5.83,38.43-.03l3.77,1.82c6.28,3.04,11.83,7.52,15.53,13.4l6.13,9.73c3.65,7.55,5.88,15.25,8.59,23.15l7.57,22.11c1.32,3.88,3.75,7.14,6.54,10.18,4.38,4.76,12.21,3.98,16.36-.99,2.2-2.66,4.41-5.67,5.62-8.92l5.02-13.6,8.44-25.36c3.65-10.99,13.53-24.19,23.71-29.36l4.23-2.15c11.17-5.65,27.61-5.4,39.03.56,3.6,1.87,7.19,3.75,10.21,6.38,14.13,12.39,18.36,28.9,21.63,46.81l4.48,24.52c1.52,8.33,5.8,15.5,11.15,21.96l6.86,6.94,4.86,4.15,10.77,9.27c17.12,14.72,24.67,32.19,26.95,54.51v12.16c-.03,3.39-4.26,5.98-7.5,6.33-3.72.43-8.79-2.41-9.09-6.26l-.84-11.09c-1.06-14.26-6.51-27.56-16.59-37.56l-5.19-5.14-5.93-5.17-6.31-5.45c-5.72-4.94-11.12-9.98-15.5-16.19-15.45-21.89-12.34-43.42-19.58-66.95-4.26-13.83-13.86-25-28.55-25.68-7.04-.33-13.63,1.32-19.35,5.57s-9.93,9.98-12.29,16.62l-5.62,15.76-5.12,15.58c-2.25,6.84-5.09,13.2-9.09,19.25-7.88,11.96-22.04,17.88-35.44,12.54-15.93-6.36-21.2-23.71-26.27-39.24l-7.12-21.81c-2.03-6.21-5.55-11.68-10.21-16.03-13.63-12.82-35.61-10.71-46.46,5.29-4.03,5.93-6.76,12.44-8.74,19.43l-7.75,27.46c-5.8,20.54-15.63,44.51-28.93,60.94l-3.09,3.82c-11.91,14.74-30.04,26.75-49.27,27.36-27.46.86-44.63-19.25-46.94-45.8l-.1-18.42.51-5.57,3.82-27.94.73-6.18-.05-16.57c-.03-7.83-3.27-15.12-7.24-21.68-2.69-4.43-1.65-9.42,2-12.89,6.36-6,10.16-17.91,6.89-25.56-6.26.58-10.97,2.99-15.12,7.09-5.9,5.8-6.79,15.15-15.7,15.2l-35.82.15c-7.57.03-13.63,4.64-19.23,8.97l-6.66,5.14c-4,3.09-9.47,3.77-14.41,4.89l-15.27,3.47c-4.05.91-8.18,3.14-10.89,6.31-2.05,2.38-2.18,5.95-2.99,8.81l-3.72,12.89c-.91,3.19,3.34,5.67,6.18,5.4l18.26-1.85c9.5-.96,18.95,1.39,27.18,6.08,12.72,7.24,21.1,19.25,22.49,33.97l.66,6.92.43,8.79.43,7.6.56,8.33.63,6.36c3.06,30.17,13.63,56.89,37.34,76.19,6.38,5.19,12.56,9.5,19.83,13.43,15.76,8.49,32.47,14.08,50.46,15.63l23.81.53c14.44.33,27.05,8.16,35.11,20.06,7.35,10.87,13.2,22.11,19.56,33.64,5.34,9.7,8.36,19.99,9.65,31.11l.71,6.13v24.82l-.48,4.86c-1.24,11.75-3.47,22.87-6.61,34.25-.99,3.57-2.79,7.37-4.99,10.26l-7.75,10.16-.94,1.67c-.18.3,1.24.71,1.52.71h28.7c2.79-.91,4.36-3.04,5.12-6.05,7.22-28.67,12.74-57.32,16.52-86.71l3.7-28.75.68-6.18.68-6.23.63-5.65c.81-7.45,2.23-14.56,6.16-21.1,6.13-10.23,16.52-18.54,28.85-18.64l44.18-.33,12.46-.41,34.55.28c8.61.08,17.07,4.79,23.68,10.99l-.05.1ZM480.9,448.16l9.32-19.33,27.53-54.66c2.15-4.28,3.09-9.09,3.44-13.91.15-2.1-1.06-5.67-1.9-7.6-2.18-4.99-5.95-8.28-9.83-11.73l-5.5-4.86-3.65-3.24-7.57-6.94-20.44-19.63c-5.83-5.6-9.73-10.82-19.2-12.49l.89,6.31c1.57,11.32,4.66,22.24,10.54,32.02l3.9,6.51c5.4,8.99,9.78,18.59,8.44,29.33l-.68,5.42-4.51,16.21c-5.6,15.58-12.26,30.22-19.83,44.94-1.39,2.74-3.34,5.7-5.32,7.85l-11.91,12.87,36.02.1c4.41,0,8.28-3.09,10.26-7.17h0Z" fill="#040000"/>
    <path d="M107.81,67.19l-6.03,3.93c-10.99,7.14-29.33-3.14-25.58-6.76,4.76-4.61,11.3-5.75,17.73-5.5s15.63,4,13.91,8.33h-.03Z" fill="#040000"/>
  </g>
  <g>
    <g>
      <g>
        <path d="M1427.9,371.56c1.03,9.77,17.23,17.04,13.77,31.6-2.14,9-16.25,12.54-27.41,9.01-9.98-3.16-19.03-8.61-26.05-16.32-14.58-16.02-22.03-35.51-25.97-56.49-4.08-21.69-5.24-42.24-2.5-64.27,1.47-11.82,1.36-23.79-.99-35.06-1.61-7.73-6.08-12.58-12.59-16.28l-10.69-6.08c4.72-5.28,10.91-9.85,18.34-10.36,15.17-1.04,29.36,7.76,36.26,20.94,4.51,8.62,4.57,17.64,2.97,27.06-2.85,16.75-5.13,33.05-5.42,50.08-.29,17.16,3.51,40.07,18.13,49.42l10.89-22.97c5.88-14.93,13.42-28.2,23.02-41.06l2.93-.96c.82-.27,1.42,2.58,1.23,3.3l-11.65,37.94c-2.87,13.28-5.76,26.3-4.26,40.51Z"/>
        <path d="M1578.99,337.17c-7.95-7.23-11.54-15.81-12.77-26.06-1.57-13.07-4.56-25.67-9.68-37.71-5.81-13.66-15.43-24.5-28.66-31.15-9.79-4.93-20.04-7.24-30.86-10.2,36.58-19.14,70.54-1.89,92.08,29.49,10.79,15.71,17.18,33.38,17.74,52.51.36,12.04-1.93,25.35-12.81,27.81-6.36,1.44-10.64-.68-15.03-4.68Z"/>
      </g>
      <g>
        <path d="M919.42,429.54c-15.93-.23-36.55.33-48.74-6.3,20.41-1.8,39.3-4.02,57.92-11,14.69-5.51,28.5-12.61,39.17-23.87,12.89-13.6,18.73-31.66,13.98-49.83-7.29-27.93-48.37-32.12-73.7-17.93-17.41,9.75-30.73,23.97-42.62,39.67-2.36,3.12-5.03,6.91-9.34,7.21-12.52.87-25.6-6.02-30.47-18.03-4.13-10.19-2.18-21.91,2.53-31.76,9.34-19.51,17.73-38.62,23.87-59.58-21.41-2.27-45.28-12.32-51.11-33.19-.36-3.29.12-6.46,2.71-8.39,4.28,4.83,8.34,8.5,14.23,10.65,13.24,4.83,27.09,5.96,41.36,5.87,3.59-17.49,9.55-37.79,5.33-53.62-1.92-7.21-8.47-9.84-15.77-11.33,2.81-5.56,8.39-7.27,13.86-7.65,12.65-.87,25.15,3.93,34.38,12.46,9.6,8.87,7.92,16.83,2.22,28.78-4.39,9.2-8.17,18.22-10.18,28.31,15.99-3.55,41.38-18.74,29.14-28.82l-12.51-10.3,21.89,3.8,9.42.63c7.57.51,14.8,1.19,20.01,6.94,5.89,6.5,5.53,15.66-.82,21.89-18.42,18.09-48.96,31.89-75.59,33.8-7.03,20.02-12.59,40.48-13.89,62.7,16.29-13.78,34.35-22.13,54.53-26.72,32.59-7.43,71.92-.32,90.48,28.68,5.01,7.83,7.16,16.62,8.2,25.79,1.94,17.21-3.93,33.4-15.38,46.23l-10.08,9.96c-21.08,16.95-47.4,25.35-75.03,24.96Z"/>
        <path d="M1206.05,408.14l-14.99-8.75c-3.93,12.69-14.73,23.2-27.03,25.77-18.05,3.79-37.24,2.28-54.49-4.4-6.21-2.41-11.59-6.94-13.72-13.15-4.69-13.72,2.22-27.87,15.13-34.01,13.07-6.22,27.31-7.1,41.77-5.94l15.63,1.25-2.28-26.58-2.76-36.02-.76-12.96-.97-23.56c-.13-3.24-.07-8.65-3.53-10.28l-16.28-7.67c12.63-12.74,32.56-10.41,45.39.72,4.85,4.2,5.32,8.91,3.65,14.59-2.7,9.21-3.22,18.54-3.97,28.63,11.19.32,26.68-.29,33.44-7.89,10.02-2.64,21.45-.39,28.99,6.54,3.5,3.22,2.29,7.88-.91,10.45l-7.97,3.45c-17.49,3.54-34.78,5.38-53.25,4.9l3.79,63.95c14.13,4.75,27.38,9.63,40.7,15.67,7.02,3.74,13.64,7.57,17.95,14.17,3.6,5.56,3.81,14.39-3.16,17.2-9.17,3.7-20.77.86-28.57-5.6-4.08-3.38-7.03-7.68-11.8-10.47ZM1151.92,408.64c9.34-1.75,15.41-9.49,15.56-19.03-16.41-5.71-39.71-8.07-50.62,4.63-9.04,10.53,14.9,18.18,35.06,14.4Z"/>
      </g>
    </g>
    <g>
      <path d="M1747.75,380.62c-14.38,9.07-28.78,16.92-44.66,22.86-10.41,3.89-20.87,4.42-31.67.63,52.48-26.19,94.4-67.97,126.16-116.7,15.37-23.58,28.5-47.67,40.22-73.26.55-1.19.34-3.87-.39-4.7-.85-.97-4.04-1.85-5.49-1.29l-59.55,22.75-32.94,11.92c-9.55-5-17.34-11.75-23.69-20.46-9-12.34-10.59-30.93,3.48-38.34,7.05,9.31,12.51,15.12,24.56,13.92,29.77-2.94,58.66-8.74,87.19-17.39l23.63-10.77c18.85-.08,54.95,24.94,40.6,34.16l-11.05,7.1-21.76,39.81-31.52,51.82c21.24,8.22,40.66,18.57,58.46,31.95,9.62,7.23,18.02,14.87,24.79,24.65,8.11,12.22,9.21,27.09,2.21,40.1-6.39,5.92-15.7,7.58-23.82,4.29-4.74-4.38-8.01-9.43-11.23-15l-20.93-35.36c-10.53-15.71-23.51-28.62-38.65-39.99-20.18,27.54-45.65,48.34-73.95,67.29Z"/>
      <g>
        <path d="M2036.04,363.95c-14.1,11.68-43.46,25.9-62.5,21.44l20.11-17.21c20.73-20.53,38.39-43.42,53.5-68.46,8.26-13.69,20.76-36.65,17.57-50.44-1.21-5.22-6.48-7.37-11.23-9.99,5.16-6.83,14.84-10.04,23.25-6.93,15.37,5.67,28.83,15.65,38.62,28.7.87,1.16,1.51,4.29,1.51,5.58,0,1.29-2.45,3.01-3.19,4.1l-9.62,19.13c-10.57,17.7-23.14,33.5-37.64,47.99l-5.28,5.28-25.1,20.8Z"/>
        <g>
          <path d="M2261.99,353.75c-11.15,5.63-24.33.36-29.3-10.52l-9.04-24.04c-4.32-11.48-8.12-22.7-14.17-33.47-13.81-24.59-33.06-44.33-56.38-60.91,12.65-3.16,25.02-2.05,37.18,2.25,31.18,11.03,64.86,35.8,80.48,65.02,8.56,16.02,9.49,34.92.95,51.01-2.16,4.07-5.28,8.4-9.72,10.64Z"/>
          <path d="M2295.43,197.66c0,21.91-17.75,39.67-39.65,39.67s-39.65-17.76-39.65-39.67,17.75-39.67,39.65-39.67,39.65,17.76,39.65,39.67ZM2276.07,197.66c0-11.21-9.08-20.29-20.28-20.29s-20.28,9.09-20.28,20.29,9.08,20.29,20.28,20.29,20.28-9.09,20.28-20.29Z"/>
        </g>
      </g>
    </g>
  </g>
</svg>