<?xml version="1.0" encoding="UTF-8"?>
<svg id="_レイヤー_1" data-name="レイヤー 1" xmlns="http://www.w3.org/2000/svg" viewBox="0 0 1496 473.01">
  <g>
    <g>
      <path d="M627.79,371.56c1.03,9.77,17.23,17.04,13.77,31.6-2.14,9-16.25,12.54-27.41,9.01-9.98-3.16-19.03-8.61-26.05-16.32-14.58-16.02-22.03-35.51-25.97-56.49-4.08-21.69-5.24-42.24-2.5-64.27,1.47-11.82,1.36-23.79-.99-35.06-1.61-7.73-6.08-12.58-12.59-16.28l-10.69-6.08c4.72-5.28,10.91-9.85,18.34-10.36,15.17-1.04,29.36,7.76,36.26,20.94,4.51,8.62,4.57,17.64,2.97,27.06-2.85,16.75-5.13,33.05-5.42,50.08-.29,17.16,3.51,40.07,18.13,49.42l10.89-22.97c5.88-14.93,13.42-28.2,23.02-41.06l2.93-.96c.82-.27,1.42,2.58,1.23,3.3l-11.65,37.94c-2.87,13.28-5.76,26.3-4.26,40.51Z"/>
      <path d="M778.88,337.17c-7.95-7.23-11.54-15.81-12.77-26.06-1.57-13.07-4.56-25.67-9.68-37.71-5.81-13.66-15.43-24.5-28.66-31.15-9.79-4.93-20.04-7.24-30.86-10.2,36.58-19.14,70.54-1.89,92.08,29.49,10.79,15.71,17.18,33.38,17.74,52.51.36,12.04-1.93,25.35-12.81,27.81-6.36,1.44-10.64-.68-15.03-4.68Z"/>
    </g>
    <g>
      <path d="M119.3,429.54c-15.93-.23-36.55.33-48.74-6.3,20.41-1.8,39.3-4.02,57.92-11,14.69-5.51,28.5-12.61,39.17-23.87,12.89-13.6,18.73-31.66,13.98-49.83-7.29-27.93-48.37-32.12-73.7-17.93-17.41,9.75-30.73,23.97-42.62,39.67-2.36,3.12-5.03,6.91-9.34,7.21-12.52.87-25.6-6.02-30.47-18.03-4.13-10.19-2.18-21.91,2.53-31.76,9.34-19.51,17.73-38.62,23.87-59.58-21.41-2.27-45.28-12.32-51.11-33.19-.36-3.29.12-6.46,2.71-8.39,4.28,4.83,8.34,8.5,14.23,10.65,13.24,4.83,27.09,5.96,41.36,5.87,3.59-17.49,9.55-37.79,5.33-53.62-1.92-7.21-8.47-9.84-15.77-11.33,2.81-5.56,8.39-7.27,13.86-7.65,12.65-.87,25.15,3.93,34.38,12.46,9.6,8.87,7.92,16.83,2.22,28.78-4.39,9.2-8.17,18.22-10.18,28.31,15.99-3.55,41.38-18.74,29.14-28.82l-12.51-10.3,21.89,3.8,9.42.63c7.57.51,14.8,1.19,20.01,6.94,5.89,6.5,5.53,15.66-.82,21.89-18.42,18.09-48.96,31.89-75.59,33.8-7.03,20.02-12.59,40.48-13.89,62.7,16.29-13.78,34.35-22.13,54.53-26.72,32.59-7.43,71.92-.32,90.48,28.68,5.01,7.83,7.16,16.62,8.2,25.79,1.94,17.21-3.93,33.4-15.38,46.23l-10.08,9.96c-21.08,16.95-47.4,25.35-75.03,24.96Z"/>
      <path d="M405.94,408.14l-14.99-8.75c-3.93,12.69-14.73,23.2-27.03,25.77-18.05,3.79-37.24,2.28-54.49-4.4-6.21-2.41-11.59-6.94-13.72-13.15-4.69-13.72,2.22-27.87,15.13-34.01,13.07-6.22,27.31-7.1,41.77-5.94l15.63,1.25-2.28-26.58-2.76-36.02-.76-12.96-.97-23.56c-.13-3.24-.07-8.65-3.53-10.28l-16.28-7.67c12.63-12.74,32.56-10.41,45.39.72,4.85,4.2,5.32,8.91,3.65,14.59-2.7,9.21-3.22,18.54-3.97,28.63,11.19.32,26.68-.29,33.44-7.89,10.02-2.64,21.45-.39,28.99,6.54,3.5,3.22,2.29,7.88-.91,10.45l-7.97,3.45c-17.49,3.54-34.78,5.38-53.25,4.9l3.79,63.95c14.13,4.75,27.38,9.63,40.7,15.67,7.02,3.74,13.64,7.57,17.95,14.17,3.6,5.56,3.81,14.39-3.16,17.2-9.17,3.7-20.77.86-28.57-5.6-4.08-3.38-7.03-7.68-11.8-10.47ZM351.8,408.64c9.34-1.75,15.41-9.49,15.56-19.03-16.41-5.71-39.71-8.07-50.62,4.63-9.04,10.53,14.9,18.18,35.06,14.4Z"/>
    </g>
  </g>
  <g>
    <path d="M947.64,380.62c-14.38,9.07-28.78,16.92-44.66,22.86-10.41,3.89-20.87,4.42-31.67.63,52.48-26.19,94.4-67.97,126.16-116.7,15.37-23.58,28.5-47.67,40.22-73.26.55-1.19.34-3.87-.39-4.7-.85-.97-4.04-1.85-5.49-1.29l-59.55,22.75-32.94,11.92c-9.55-5-17.34-11.75-23.69-20.46-9-12.34-10.59-30.93,3.48-38.34,7.05,9.31,12.51,15.12,24.56,13.92,29.77-2.94,58.66-8.74,87.19-17.39l23.63-10.77c18.85-.08,54.95,24.94,40.6,34.16l-11.05,7.1-21.76,39.81-31.52,51.82c21.24,8.22,40.66,18.57,58.46,31.95,9.62,7.23,18.02,14.87,24.79,24.65,8.11,12.22,9.21,27.09,2.21,40.1-6.39,5.92-15.7,7.58-23.82,4.29-4.74-4.38-8.01-9.43-11.23-15l-20.93-35.36c-10.53-15.71-23.51-28.62-38.65-39.99-20.18,27.54-45.65,48.34-73.95,67.29Z"/>
    <g>
      <path d="M1235.92,363.95c-14.1,11.68-43.46,25.9-62.5,21.44l20.11-17.21c20.73-20.53,38.39-43.42,53.5-68.46,8.26-13.69,20.76-36.65,17.57-50.44-1.21-5.22-6.48-7.37-11.23-9.99,5.16-6.83,14.84-10.04,23.25-6.93,15.37,5.67,28.83,15.65,38.62,28.7.87,1.16,1.51,4.29,1.51,5.58,0,1.29-2.45,3.01-3.19,4.1l-9.62,19.13c-10.57,17.7-23.14,33.5-37.64,47.99l-5.28,5.28-25.1,20.8Z"/>
      <g>
        <path d="M1461.87,353.75c-11.15,5.63-24.33.36-29.3-10.52l-9.04-24.04c-4.32-11.48-8.12-22.7-14.17-33.47-13.81-24.59-33.06-44.33-56.38-60.91,12.65-3.16,25.02-2.05,37.18,2.25,31.18,11.03,64.86,35.8,80.48,65.02,8.56,16.02,9.49,34.92.95,51.01-2.16,4.07-5.28,8.4-9.72,10.64Z"/>
        <path d="M1495.31,197.66c0,21.91-17.75,39.67-39.65,39.67s-39.65-17.76-39.65-39.67,17.75-39.67,39.65-39.67,39.65,17.76,39.65,39.67ZM1475.95,197.66c0-11.21-9.08-20.29-20.28-20.29s-20.28,9.09-20.28,20.29,9.08,20.29,20.28,20.29,20.28-9.09,20.28-20.29Z"/>
      </g>
    </g>
  </g>
</svg>